<svg width="24" height="24" viewBox="0 0 24 24" fill="none" xmlns="http://www.w3.org/2000/svg">
  <path d="M6.2 5a.8.8 0 0 0-.8.8v12.4a.8.8 0 0 0 .8.8h.2a.8.8 0 0 0 .8-.8V5.8a.8.8 0 0 0-.8-.8h-.2Z" fill="currentColor"/>
  <path d="M17.8 5a.8.8 0 0 1 .8.8v12.4a.8.8 0 0 1-.8.8h-.2a.8.8 0 0 1-.8-.8V5.8a.8.8 0 0 1 .8-.8h.2Z" fill="currentColor"/>
  <rect x="8" y="8" width="8" height="8" rx="1" fill="currentColor"/>
  <path d="M9 11H15" stroke="white" stroke-width="1" stroke-linecap="round"/>
  <path d="M9 13H15" stroke="white" stroke-width="1" stroke-linecap="round"/>
</svg>