<svg width="24" height="24" viewBox="0 0 24 24" fill="none" xmlns="http://www.w3.org/2000/svg">
  <path d="M8 4C6.5 4 5 5.5 5 7V9C5 10.5 6.5 12 8 12C9.5 12 11 10.5 11 9V7C11 5.5 9.5 4 8 4Z" fill="currentColor"/>
  <path d="M16 4C14.5 4 13 5.5 13 7V9C13 10.5 14.5 12 16 12C17.5 12 19 10.5 19 9V7C19 5.5 17.5 4 16 4Z" fill="currentColor"/>
  <path d="M6 12C4.5 12 3 13.5 3 15V17C3 18.5 4.5 20 6 20C7.5 20 9 18.5 9 17V15C9 13.5 7.5 12 6 12Z" fill="currentColor"/>
  <path d="M18 12C16.5 12 15 13.5 15 15V17C15 18.5 16.5 20 18 20C19.5 20 21 18.5 21 17V15C21 13.5 19.5 12 18 12Z" fill="currentColor"/>
</svg>