<svg width="24" height="24" viewBox="0 0 24 24" fill="none" xmlns="http://www.w3.org/2000/svg">
  <path d="M12 2C9.5 2 7.5 3.5 7.5 5.5C7.5 6.5 8 7.3 8.7 8L7 10C6.5 10.8 6.5 11.8 7 12.6L9 16C9.5 16.8 10.2 17 11 17H13C13.8 17 14.5 16.8 15 16L17 12.6C17.5 11.8 17.5 10.8 17 10L15.3 8C16 7.3 16.5 6.5 16.5 5.5C16.5 3.5 14.5 2 12 2Z" fill="currentColor"/>
  <path d="M10 18V21C10 21.5 10.5 22 11 22C11.5 22 12 21.5 12 21V18H10Z" fill="currentColor"/>
  <path d="M12 18V21C12 21.5 12.5 22 13 22C13.5 22 14 21.5 14 21V18H12Z" fill="currentColor"/>
</svg>